<svg width="21" height="20" viewBox="0 0 21 20" fill="none" xmlns="http://www.w3.org/2000/svg">
<path d="M20.562 3.41829C20.1843 2.95136 19.6112 2.69146 19.0164 2.69146H6.10869C5.73965 2.69146 5.38798 2.79718 5.08407 2.9866L4.42414 0.647537C4.31559 0.264301 3.9726 0 3.58186 0H0.664272C0.299573 0 0 0.299541 0 0.673967V0.744447C0 1.11447 0.295232 1.41841 0.664272 1.41841H3.17374L6.21723 12.3517C5.21431 12.6071 4.47189 13.5278 4.47189 14.6202C4.47189 15.858 5.42271 16.8756 6.62535 16.9549C6.52549 17.2456 6.47773 17.5672 6.50378 17.8976C6.59062 19.0164 7.48934 19.9195 8.59211 19.9944C9.90763 20.0869 11.0061 19.0253 11.0061 17.7126C11.0061 17.4483 10.9627 17.1972 10.8802 16.9593H13.5199C13.4113 17.2721 13.3679 17.6201 13.407 17.9769C13.5286 19.0605 14.4099 19.9151 15.4866 19.9944C16.8022 20.0869 17.9049 19.0297 17.9049 17.7126C17.9049 16.4395 16.8629 15.422 15.6126 15.422H6.79467C6.36485 15.422 6.00015 15.0828 5.98279 14.6511C5.96542 14.193 6.32578 13.8185 6.77296 13.8185H17.2928C18.1871 13.8185 18.9686 13.1974 19.1857 12.3164L20.9397 5.15387C21.0917 4.53716 20.9528 3.90725 20.562 3.41829ZM15.6516 16.9549C16.0597 16.9549 16.394 17.2941 16.394 17.7082C16.394 18.1222 16.0597 18.4614 15.6516 18.4614C15.2435 18.4614 14.9092 18.1222 14.9092 17.7082C14.9092 17.2941 15.2392 16.9549 15.6516 16.9549ZM8.75275 16.9549C9.16087 16.9549 9.49518 17.2941 9.49518 17.7082C9.49518 18.1222 9.16087 18.4614 8.75275 18.4614C8.34464 18.4614 8.01033 18.1222 8.01033 17.7082C8.01033 17.2941 8.3403 16.9549 8.75275 16.9549ZM6.0262 6.00403L5.68755 4.79265C5.63545 4.60764 5.70926 4.47109 5.76136 4.40501C5.80912 4.33894 5.922 4.22881 6.10869 4.22881H7.52407L7.91048 6.00844H6.0262V6.00403ZM6.45168 7.53698H8.24044L8.59645 9.18445H6.90756L6.45168 7.53698ZM8.09717 12.2768C7.90179 12.2768 7.72813 12.1446 7.67603 11.9508L7.33304 10.7174H8.92642L9.26507 12.2724H8.09717V12.2768ZM11.8787 12.2768H10.8107L10.472 10.7218H11.8744V12.2768H11.8787ZM11.8787 9.18445H10.1421L9.78607 7.53698H11.8787V9.18445ZM11.8787 6.00403H9.4561L9.06969 4.22441H11.8787V6.00403ZM14.5879 12.2768H13.394V10.7218H14.9092L14.5879 12.2768ZM15.2305 9.18445H13.394V7.53698H15.5735L15.2305 9.18445ZM13.394 6.00403V4.22441H16.2595L15.8904 6.00403H13.394ZM17.7226 11.942C17.6748 12.1402 17.5012 12.2812 17.2971 12.2812H16.1335L16.4592 10.7262H18.0222L17.7226 11.942ZM18.3955 9.18445H16.7761L17.1191 7.53698H18.7993L18.3955 9.18445ZM19.4723 4.77503L19.1727 5.99963H17.436L17.8051 4.22H19.0468C19.2335 4.22 19.342 4.32572 19.3898 4.3918C19.4419 4.45787 19.52 4.59443 19.4723 4.77503Z" fill="white"/>
</svg>
