<svg width="58" height="29" viewBox="0 0 58 29" fill="none" xmlns="http://www.w3.org/2000/svg">
<path d="M0 28.945H31.3089L41.6993 0.397724L0 1.46968V28.945Z" fill="#DA2128"/>
<path d="M57.1705 0L52.1789 0.128312L41.6905 28.945H46.6353L57.1705 0Z" fill="#DA2128"/>
<path d="M44.4433 0.327147L49.4349 0.198835L38.9721 28.945H34.0273L44.4433 0.327147Z" fill="#DA2128"/>
<path d="M14.6907 22.4145L11.8763 18.3799C11.7582 18.393 11.5811 18.3996 11.3449 18.3996H8.23531V22.4145H5.67676V8.6377H11.3449C12.5389 8.6377 13.5755 8.83451 14.4546 9.22813C15.3468 9.62175 16.0291 10.1859 16.5014 10.9207C16.9738 11.6555 17.2099 12.528 17.2099 13.5383C17.2099 14.5749 16.9541 15.4671 16.4424 16.2149C15.9438 16.9628 15.2221 17.5205 14.2774 17.8878L17.4461 22.4145H14.6907ZM14.6317 13.5383C14.6317 12.6592 14.343 11.9835 13.7657 11.5111C13.1884 11.0388 12.3421 10.8026 11.2268 10.8026H8.23531V16.2937H11.2268C12.3421 16.2937 13.1884 16.0575 13.7657 15.5852C14.343 15.0997 14.6317 14.4174 14.6317 13.5383Z" fill="white"/>
<path d="M25.7406 8.6377C26.9346 8.6377 27.9712 8.83451 28.8503 9.22813C29.7425 9.62175 30.4248 10.1859 30.8971 10.9207C31.3695 11.6555 31.6056 12.528 31.6056 13.5383C31.6056 14.5355 31.3695 15.408 30.8971 16.1559C30.4248 16.8907 29.7425 17.4549 28.8503 17.8485C27.9712 18.2421 26.9346 18.4389 25.7406 18.4389H22.631V22.4145H20.0725V8.6377H25.7406ZM25.6226 16.274C26.7378 16.274 27.5841 16.0378 28.1614 15.5655C28.7387 15.0931 29.0274 14.4174 29.0274 13.5383C29.0274 12.6592 28.7387 11.9835 28.1614 11.5111C27.5841 11.0388 26.7378 10.8026 25.6226 10.8026H22.631V16.274H25.6226Z" fill="white"/>
</svg>
