<svg width="12" height="8" viewBox="0 0 12 8" fill="none" xmlns="http://www.w3.org/2000/svg">
<path d="M10.9284 8C11.1982 8 11.4319 7.92443 11.6306 7.77522L8.23082 4.89045C8.14925 4.94001 8.07019 4.9882 7.9955 5.03403C7.74108 5.19308 7.53458 5.31719 7.37602 5.40612C7.21748 5.49526 7.00654 5.58612 6.74323 5.67888C6.47974 5.77175 6.23427 5.81804 6.00656 5.81804H5.99322C5.76549 5.81804 5.52002 5.77177 5.25655 5.67888C4.99308 5.58612 4.78215 5.49526 4.62376 5.40612C4.46522 5.31719 4.25883 5.19309 4.00428 5.03403C3.93334 4.9899 3.85467 4.94149 3.76961 4.88967L0.369175 7.77522C0.567848 7.92443 0.801727 8 1.07145 8H10.9284Z" fill="#D93030"/>
<path d="M0.67641 3.07389C0.422007 2.92998 0.196407 2.76517 0 2.57952V6.96846L2.99656 4.42593C2.39707 4.07082 1.62467 3.62066 0.67641 3.07389Z" fill="#D93030"/>
<path d="M11.3304 3.07389C10.4183 3.5977 9.64304 4.04864 9.00463 4.42695L12 6.96857V2.57952C11.808 2.76143 11.5848 2.92614 11.3304 3.07389Z" fill="#D93030"/>
<path d="M10.9285 0H1.07149C0.727606 0 0.463226 0.0985281 0.278017 0.295381C0.0926566 0.492327 0.000128797 0.738629 0.000128797 1.03401C0.000128797 1.2726 0.122918 1.53112 0.368388 1.80965C0.613858 2.08806 0.875058 2.30674 1.15186 2.46581C1.3036 2.55678 1.76121 2.82671 2.52468 3.2755C2.93682 3.51783 3.29523 3.72904 3.60322 3.91131C3.86575 4.06651 4.09216 4.20092 4.27909 4.31247C4.30055 4.32524 4.3343 4.34572 4.37909 4.3729C4.42735 4.40231 4.48842 4.43963 4.56375 4.48579C4.70883 4.57481 4.82936 4.64678 4.92535 4.70175C5.02121 4.75675 5.13735 4.81818 5.27361 4.88639C5.40975 4.95451 5.53816 5.00573 5.65869 5.0398C5.77923 5.07385 5.89082 5.09093 5.99348 5.09093H6.00681C6.10945 5.09093 6.22106 5.07385 6.34163 5.0398C6.46213 5.00573 6.59043 4.95462 6.72669 4.88639C6.86281 4.81818 6.9788 4.75662 7.07497 4.70175C7.17096 4.64678 7.29149 4.57483 7.43658 4.48579C7.51177 4.43963 7.57284 4.40229 7.6211 4.37299C7.66591 4.3457 7.69964 4.32535 7.72123 4.31247C7.86685 4.22649 8.09378 4.09264 8.39888 3.91288C8.95405 3.58559 9.77165 3.10388 10.8551 2.46581C11.181 2.27269 11.4533 2.03964 11.6721 1.767C11.8905 1.49436 12 1.20837 12 0.909121C12 0.659104 11.8938 0.44517 11.6819 0.266987C11.4698 0.0890266 11.2186 0 10.9285 0Z" fill="#D93030"/>
</svg>
