<svg width="25" height="22" viewBox="0 0 25 22" fill="none" xmlns="http://www.w3.org/2000/svg">
<path d="M24.5237 7.63305L21.2424 1.07055C21.0836 0.79175 20.8605 0.617188 20.5085 0.617188H4.10227C3.75927 0.617188 3.52991 0.787375 3.36836 1.07055L0.0871096 7.63305C-0.0648123 7.9557 -0.0128047 8.27995 0.2025 8.53867L11.6869 21.7184C11.8427 21.8972 12.068 22 12.3054 22C12.5427 22 12.768 21.8972 12.9239 21.7184L24.4083 8.53867C24.6222 8.28126 24.6765 7.9574 24.5237 7.63305ZM19.1813 2.25781L17.0873 6.44578L13.946 2.25781H19.1813ZM15.5866 7.17969H9.02414L12.3054 2.80469L15.5866 7.17969ZM10.6648 2.25781L7.52352 6.44578L5.42953 2.25781H10.6648ZM4.10227 3.27172L6.05625 7.17969H2.14828L4.10227 3.27172ZM2.62406 8.82031H6.84156L10.8857 18.302L2.62406 8.82031ZM12.3054 17.4484L8.62547 8.82031H15.9853L12.3054 17.4484ZM13.7251 18.302L17.7692 8.82031H21.9867L13.7251 18.302ZM18.5545 7.17969L20.5085 3.27172L22.4625 7.17969H18.5545Z" fill="#D62222"/>
</svg>
