<svg width="28" height="20" viewBox="0 0 28 20" fill="none" xmlns="http://www.w3.org/2000/svg">
<path d="M27.7597 7.59055L23.3665 3.26469C23.2127 3.11304 23.004 3.02806 22.7865 3.02806H19.2135V2.97043C19.2135 1.33251 17.8602 0 16.1967 0H3.017C1.3533 0 0 1.33251 0 2.97043V13.7851C0 15.423 1.3533 16.7553 3.017 16.7553H3.59699C3.97809 18.6042 5.64136 20 7.62976 20C9.61795 20 11.2814 18.6042 11.6628 16.7553H16.3372C16.7186 18.6042 18.3818 20 20.3702 20C22.3586 20 24.0219 18.6042 24.4032 16.7553H27.1797C27.6328 16.7553 28 16.3937 28 15.9476V8.16163C28 7.94729 27.9137 7.742 27.7597 7.59055ZM22.4467 4.64347L25.1994 7.35392H19.2135V4.64347H22.4467ZM1.64063 13.7851V2.97043C1.64063 2.2233 2.258 1.61541 3.017 1.61541H16.1967C16.9555 1.61541 17.5728 2.2233 17.5728 2.97043V12.9795C16.9542 13.5451 16.5116 14.2949 16.3372 15.1399H11.6628C11.2814 13.2914 9.61795 11.8956 7.62976 11.8956C5.64157 11.8956 3.9783 13.2914 3.59699 15.1399H3.017C2.258 15.1399 1.64063 14.5322 1.64063 13.7851ZM7.62976 18.3846C6.26535 18.3846 5.15537 17.2912 5.15537 15.9476C5.15537 14.6041 6.26535 13.511 7.62976 13.511C8.99438 13.511 10.1044 14.6041 10.1044 15.9476C10.1044 17.2912 8.99417 18.3846 7.62976 18.3846ZM20.3702 18.3846C19.0056 18.3846 17.8956 17.2912 17.8956 15.9476C17.8956 14.6041 19.0056 13.511 20.3702 13.511C21.7347 13.511 22.8449 14.6041 22.8449 15.9476C22.8449 17.2912 21.7347 18.3846 20.3702 18.3846ZM24.4032 15.1399C24.0219 13.2914 22.3586 11.8956 20.3702 11.8956C19.9686 11.8956 19.5807 11.9536 19.2135 12.0599V8.96933H26.3594V15.1401L24.4032 15.1399Z" fill="#D62222"/>
</svg>
