<svg width="14" height="25" viewBox="0 0 14 25" fill="none" xmlns="http://www.w3.org/2000/svg">
<path d="M6.22222 24.2222C6.22222 24.6518 6.57045 25 7 25C7.42955 25 7.77778 24.6518 7.77778 24.2222V23.7537C7.77778 23.2289 8.18595 22.7997 8.70357 22.7134C12.1066 22.146 14 19.8725 14 17.0703C14 13.3203 10.5474 12.1094 8.53658 11.5625L8.50535 11.5537C8.07491 11.4318 7.77778 11.0388 7.77778 10.5915V5.51147C7.77778 4.91906 8.29578 4.4457 8.86236 4.61873C9.99307 4.96403 10.8465 5.65872 11.2414 6.63975C11.4308 7.11023 11.8403 7.5 12.3475 7.5H12.7006C13.2659 7.5 13.7292 7.02647 13.5951 6.47731C13.0848 4.38914 11.2414 2.81594 8.70455 2.35992C8.18699 2.26689 7.77778 1.83788 7.77778 1.31203V0.777778C7.77778 0.348223 7.42955 0 7 0C6.57045 0 6.22222 0.348223 6.22222 0.777778V1.37495C6.22222 1.88678 5.83364 2.30893 5.33339 2.41722C2.53479 3.023 0.531165 5.03246 0.531165 7.8125C0.531165 10.5078 2.42818 12.1094 5.46342 13.0078L5.50605 13.0204C5.9308 13.1462 6.22222 13.5363 6.22222 13.9793V19.5113C6.22222 20.1061 5.70104 20.5794 5.13093 20.41C3.95354 20.0603 3.0161 19.3476 2.61913 18.24C2.44385 17.751 2.02896 17.3437 1.50946 17.3437H1.07343C0.493289 17.3437 0.0260239 17.8402 0.164927 18.4034C0.721754 20.6614 2.53296 22.2606 5.29379 22.7155C5.8127 22.801 6.22222 23.2306 6.22222 23.7565V24.2222ZM8.87549 20.401C8.30359 20.574 7.77778 20.101 7.77778 19.5036V13.7698C7.77778 13.7301 7.81522 13.701 7.85366 13.7109C9.90244 14.2969 11.7236 15.0391 11.7236 17.0312C11.7236 18.6643 10.5812 19.885 8.87549 20.401ZM6.22222 9.58515C6.22222 10.2517 5.57683 10.741 4.96921 10.467C3.84759 9.96138 2.80759 9.13464 2.80759 7.69531C2.80759 6.32923 3.67581 5.22493 5.11139 4.70252C5.6806 4.49538 6.22222 4.97275 6.22222 5.57848V9.58515Z" fill="#D62222"/>
</svg>
