<svg width="28" height="24" viewBox="0 0 28 24" fill="none" xmlns="http://www.w3.org/2000/svg">
<path d="M27.8816 9.27828L23.0658 1.31135C22.8527 0.958778 22.4112 0.819052 22.0339 0.984646L19.0906 2.27768L14.5521 0.933458C14.3414 0.871005 14.1144 0.895778 13.9221 1.00215L8.69602 3.89249L5.68471 1.96459C5.49839 1.84532 5.27176 1.80627 5.05635 1.85653C4.84088 1.90668 4.65483 2.04176 4.54037 2.23108L0.118396 9.54658C-0.112002 9.92775 0.00382584 10.4231 0.37931 10.6626L2.24 11.8492L1.86391 12.351C1.10441 13.3645 1.31102 14.807 2.32449 15.5665C2.72617 15.8675 3.20397 16.0257 3.69709 16.0257C3.74117 16.0257 3.78541 16.0235 3.82971 16.021C3.94794 16.5294 4.23828 17.0006 4.6877 17.3374C5.09994 17.6463 5.58299 17.7954 6.06227 17.7954C6.10547 17.7954 6.14862 17.7941 6.19172 17.7917C6.31356 18.3182 6.61341 18.7805 7.05091 19.1084C7.45259 19.4094 7.9304 19.5676 8.42351 19.5676C8.46759 19.5676 8.51183 19.5654 8.55613 19.5629C8.67437 20.0713 8.9647 20.5424 9.41412 20.8792C9.82636 21.1882 10.3094 21.3373 10.7887 21.3373C11.4879 21.3373 12.179 21.0199 12.6295 20.4187L12.7036 20.3197L15.9841 22.6548C16.4067 22.9556 16.8948 23.1002 17.3789 23.1002C18.1287 23.1002 18.8684 22.753 19.3374 22.1015C19.5406 21.8192 19.6737 21.5079 19.7398 21.1882C20.6335 21.359 21.5883 21.0155 22.152 20.2324C22.4542 19.8126 22.5999 19.3262 22.6005 18.8436C23.2469 18.7658 23.8602 18.4293 24.2683 17.8623C24.5172 17.5166 24.6599 17.1254 24.7028 16.7286C25.4719 16.7461 26.2383 16.3989 26.7194 15.7306C27.094 15.2101 27.2427 14.5755 27.1381 13.9436C27.0332 13.3106 26.687 12.7566 26.163 12.3837L25.367 11.8171L27.6176 10.3963C27.9953 10.1578 28.1128 9.66065 27.8816 9.27828ZM4.22707 14.1219C4.12196 14.2622 3.96851 14.3531 3.79504 14.378C3.62129 14.4028 3.4487 14.3586 3.30843 14.2535C3.0188 14.0365 2.95979 13.6245 3.17679 13.3348L4.25244 11.8995C4.46944 11.6099 4.88157 11.5508 5.17114 11.7678C5.46071 11.9848 5.51977 12.3969 5.30277 12.6865L4.22707 14.1219ZM6.59028 15.8928C6.37322 16.1824 5.9611 16.2415 5.67158 16.0245C5.38201 15.8074 5.32301 15.3953 5.53995 15.1058L6.61565 13.6704C6.61554 13.6706 6.61576 13.6702 6.61565 13.6704L7.37269 12.6602C7.4778 12.5199 7.63126 12.429 7.80472 12.4041C7.97841 12.3793 8.15106 12.4235 8.29133 12.5286C8.5809 12.7456 8.63997 13.1577 8.42297 13.4473L6.59028 15.8928ZM8.95349 17.6637C8.84838 17.804 8.69487 17.8949 8.5214 17.9198C8.34799 17.9447 8.17507 17.9006 8.03479 17.7954C7.89452 17.6903 7.80358 17.5368 7.77869 17.3633C7.75381 17.1899 7.79805 17.017 7.90316 16.8767L9.73585 14.4312C9.73579 14.4312 9.7359 14.4311 9.73585 14.4312L10.0698 13.9855C10.1749 13.8452 10.3284 13.7543 10.5019 13.7294C10.5335 13.7249 10.565 13.7226 10.5964 13.7226C10.7372 13.7226 10.8737 13.7678 10.9885 13.8538C11.1288 13.9589 11.2197 14.1124 11.2446 14.2859C11.2695 14.4594 11.2253 14.6322 11.1202 14.7725L8.95349 17.6637ZM12.3922 17.9994L11.3166 19.4348C11.0996 19.7243 10.6875 19.7834 10.3979 19.5664C10.1084 19.3494 10.0493 18.9372 10.2663 18.6477L11.342 17.2123C11.4471 17.0721 11.6005 16.9811 11.7741 16.9562C11.9475 16.9314 12.1204 16.9756 12.2606 17.0807C12.5502 17.2977 12.6092 17.7098 12.3922 17.9994ZM25.5193 14.2118C25.5522 14.4096 25.5054 14.6087 25.3877 14.7721C25.1418 15.1138 24.6616 15.1924 24.3174 14.9473L23.7234 14.5246C23.7235 14.5247 23.7233 14.5245 23.7234 14.5246L20.4116 12.17C20.0423 11.9075 19.5302 11.9941 19.2677 12.3633C19.0052 12.7326 19.0917 13.2447 19.4609 13.5072L22.7661 15.857C23.1007 16.1002 23.1772 16.5697 22.9366 16.9038C22.6906 17.2455 22.2105 17.3241 21.8662 17.0791L21.6066 16.8943L19.049 15.076C18.6797 14.8135 18.1676 14.8999 17.9051 15.2692C17.6426 15.6385 17.7291 16.1506 18.0983 16.4131L20.6495 18.2268C20.9844 18.4699 21.061 18.9395 20.8203 19.2739C20.5743 19.6156 20.0942 19.6942 19.75 19.4492L18.8402 18.8017C18.8404 18.8017 18.8401 18.8016 18.8402 18.8017L17.4628 17.8224C17.0936 17.56 16.5814 17.6465 16.3189 18.0157C16.0564 18.3849 16.1429 18.8971 16.5122 19.1596L17.8653 20.1216C18.1765 20.3727 18.2388 20.8193 18.0056 21.1431C17.7597 21.4847 17.2796 21.5634 16.9352 21.3184L13.6875 19.0066L13.7049 18.9834C14.4644 17.97 14.2577 16.5275 13.2443 15.768C13.0529 15.6247 12.8463 15.5158 12.6318 15.4402C12.8535 15.0167 12.9375 14.536 12.8683 14.0535C12.7813 13.4462 12.463 12.9091 11.9721 12.5412C11.4811 12.1733 10.8763 12.0186 10.2689 12.1056C10.1814 12.1181 10.0955 12.136 10.0113 12.158C9.85846 11.7958 9.61149 11.4681 9.27494 11.2159C8.78396 10.8479 8.17911 10.6931 7.57181 10.7803C7.26791 10.8238 6.98162 10.9252 6.7253 11.0773C6.57929 10.8427 6.38881 10.6305 6.15475 10.4552C5.27373 9.79491 4.0688 9.86513 3.26993 10.5604L1.93648 9.71009L5.50872 3.80034L7.06322 4.79554L6.03487 5.36429C5.79091 5.49926 5.63215 5.74886 5.61345 6.027C5.57413 6.61046 5.69308 7.1955 5.95744 7.71892C6.7731 9.33389 8.75689 9.98851 10.3794 9.17798L14.1874 7.27622L16.1181 7.30461L23.4224 12.4471C23.4224 12.447 23.4225 12.4471 23.4224 12.4471L25.2112 13.7204C25.377 13.8382 25.4864 14.0128 25.5193 14.2118ZM23.9197 10.7907L16.8558 5.81727C16.721 5.72233 16.5606 5.67022 16.3956 5.66781L14.012 5.63276C14.0079 5.6327 14.0039 5.6327 13.9999 5.6327C13.8727 5.6327 13.7472 5.66229 13.6334 5.71916L9.6466 7.71022C8.82962 8.11814 7.83169 7.79034 7.42202 6.97927C7.35361 6.84375 7.30466 6.70009 7.27622 6.55265L14.4153 2.60427L18.9125 3.93624C19.0984 3.99131 19.2978 3.97873 19.4754 3.90075L22.0342 2.77665L26.0613 9.43868L23.9197 10.7907Z" fill="#D62222"/>
</svg>
