<svg width="18" height="13" viewBox="0 0 18 13" fill="none" xmlns="http://www.w3.org/2000/svg">
<path d="M1.73253 5.10187C1.35657 4.69731 0.72383 4.67412 0.319265 5.05008C-0.0853 5.42604 -0.108489 6.05878 0.26747 6.46334L1.73253 5.10187ZM6.77778 12L6.04525 12.6807C6.23445 12.8843 6.49984 13 6.77778 13C7.05571 13 7.32111 12.8843 7.51031 12.6807L6.77778 12ZM17.7325 1.68073C18.1085 1.27617 18.0853 0.64343 17.6807 0.26747C17.2762 -0.108489 16.6434 -0.0853 16.2675 0.319265L17.7325 1.68073ZM0.26747 6.46334L6.04525 12.6807L7.51031 11.3193L1.73253 5.10187L0.26747 6.46334ZM7.51031 12.6807L17.7325 1.68073L16.2675 0.319265L6.04525 11.3193L7.51031 12.6807Z" fill="#D62222"/>
</svg>
