<svg width="201" height="50" viewBox="0 0 201 50" fill="none" xmlns="http://www.w3.org/2000/svg">
<path fill-rule="evenodd" clip-rule="evenodd" d="M10.7145 7.14258H14.2859V14.7704L17.6484 14.7704H20.422H21.2198V23.0913H17.6484V18.3419L14.2859 18.3419V23.0909H10.7145V18.3419H10.7144L10.7144 14.7704H10.7145V7.14258Z" fill="#D62222"/>
<path fill-rule="evenodd" clip-rule="evenodd" d="M28.5715 7.14258H32.1429V14.7704L35.5053 14.7704H38.279H39.0767V23.0913H35.5053V18.3419L32.1429 18.3419V23.0909H28.5715V18.3419H28.5713L28.5713 14.7704H28.5715V7.14258Z" fill="#D62222"/>
<path fill-rule="evenodd" clip-rule="evenodd" d="M10.7145 26.7856H14.2859V34.4134L17.6484 34.4134H20.422H21.2198V42.7343H17.6484V37.9848H14.2859V42.734H10.7145V37.9848H10.7144L10.7144 34.4134H10.7145V26.7856Z" fill="#D62222"/>
<path fill-rule="evenodd" clip-rule="evenodd" d="M28.5715 26.7856H32.1429V34.4134L35.5053 34.4134H38.279H39.0767V42.7343H35.5053V37.9848H32.1429V42.734H28.5715V37.9848H28.5713L28.5713 34.4134H28.5715V26.7856Z" fill="#D62222"/>
<path d="M81.9635 20.7271C80.018 20.7271 78.2635 20.3089 76.6998 19.4726C75.1362 18.618 73.9089 17.4453 73.018 15.9544C72.1271 14.4453 71.6816 12.7635 71.6816 10.9089C71.6816 9.05438 72.1271 7.38165 73.018 5.89074C73.9089 4.38165 75.1362 3.20893 76.6998 2.37256C78.2635 1.51802 80.018 1.09074 81.9635 1.09074C83.9089 1.09074 85.6635 1.51802 87.2271 2.37256C88.7907 3.20893 90.018 4.37256 90.9089 5.86347C91.7998 7.35438 92.2453 9.0362 92.2453 10.9089C92.2453 12.7817 91.7998 14.4635 90.9089 15.9544C90.018 17.4453 88.7907 18.618 87.2271 19.4726C85.6635 20.3089 83.9089 20.7271 81.9635 20.7271ZM81.9635 17.618C83.2362 17.618 84.3816 17.3362 85.3998 16.7726C86.418 16.1907 87.218 15.3907 87.7998 14.3726C88.3816 13.3362 88.6726 12.1817 88.6726 10.9089C88.6726 9.6362 88.3816 8.49075 87.7998 7.47256C87.218 6.4362 86.418 5.6362 85.3998 5.07256C84.3816 4.49075 83.2362 4.19984 81.9635 4.19984C80.6907 4.19984 79.5453 4.49075 78.5271 5.07256C77.5089 5.6362 76.7089 6.4362 76.1271 7.47256C75.5453 8.49075 75.2544 9.6362 75.2544 10.9089C75.2544 12.1817 75.5453 13.3362 76.1271 14.3726C76.7089 15.3907 77.5089 16.1907 78.5271 16.7726C79.5453 17.3362 80.6907 17.618 81.9635 17.618Z" fill="black"/>
<path d="M115.038 13.1453C115.038 15.3998 114.283 17.1726 112.774 18.4635C111.283 19.7544 109.147 20.4907 106.365 20.6726V25.7453H103.147V20.6998C100.365 20.518 98.2287 19.7817 96.7378 18.4907C95.2469 17.1998 94.5015 15.418 94.5015 13.1453C94.5015 10.8907 95.2469 9.1362 96.7378 7.88165C98.2287 6.60893 100.365 5.88165 103.147 5.69984V0.218018H106.365V5.69984C109.147 5.88165 111.283 6.60893 112.774 7.88165C114.283 9.15438 115.038 10.9089 115.038 13.1453ZM97.856 13.1453C97.856 14.5453 98.2833 15.6362 99.1378 16.418C100.011 17.1998 101.347 17.6726 103.147 17.8362V8.59074C101.347 8.7362 100.011 9.19075 99.1378 9.95438C98.2833 10.718 97.856 11.7817 97.856 13.1453ZM106.365 17.8362C109.929 17.5089 111.711 15.9453 111.711 13.1453C111.711 11.7635 111.265 10.6998 110.374 9.95438C109.501 9.19075 108.165 8.7362 106.365 8.59074V17.8362Z" fill="black"/>
<path d="M118.342 5.89074H121.751V15.4907L129.796 5.89074H132.906V20.4544H129.496V10.8544L121.478 20.4544H118.342V5.89074Z" fill="black"/>
<path d="M144.119 20.6453C142.61 20.6453 141.255 20.3271 140.055 19.6907C138.855 19.0544 137.919 18.1726 137.246 17.0453C136.573 15.8998 136.237 14.6089 136.237 13.1726C136.237 11.7362 136.573 10.4544 137.246 9.32711C137.919 8.19984 138.846 7.31802 140.028 6.68166C141.228 6.04529 142.591 5.72711 144.119 5.72711C145.555 5.72711 146.81 6.01802 147.882 6.59984C148.973 7.18165 149.791 8.01802 150.337 9.10893L147.719 10.6362C147.3 9.96347 146.773 9.46347 146.137 9.1362C145.519 8.79075 144.837 8.61802 144.091 8.61802C142.819 8.61802 141.764 9.0362 140.928 9.87256C140.091 10.6907 139.673 11.7907 139.673 13.1726C139.673 14.5544 140.082 15.6635 140.9 16.4998C141.737 17.318 142.8 17.7271 144.091 17.7271C144.837 17.7271 145.519 17.5635 146.137 17.2362C146.773 16.8907 147.3 16.3817 147.719 15.7089L150.337 17.2362C149.773 18.3271 148.946 19.1726 147.855 19.7726C146.782 20.3544 145.537 20.6453 144.119 20.6453Z" fill="black"/>
<path d="M153.338 5.89074H156.747V11.8089H164.084V5.89074H167.493V20.4544H164.084V14.6998H156.747V20.4544H153.338V5.89074Z" fill="black"/>
<path d="M177.489 5.72711C179.634 5.72711 181.271 6.24529 182.398 7.28165C183.543 8.29984 184.116 9.84529 184.116 11.918V20.4544H180.898V18.6817C180.48 19.318 179.88 19.8089 179.098 20.1544C178.334 20.4817 177.407 20.6453 176.316 20.6453C175.225 20.6453 174.271 20.4635 173.453 20.0998C172.634 19.718 171.998 19.1998 171.544 18.5453C171.107 17.8726 170.889 17.118 170.889 16.2817C170.889 14.9726 171.371 13.9271 172.334 13.1453C173.316 12.3453 174.853 11.9453 176.944 11.9453H180.707V11.7271C180.707 10.7089 180.398 9.92711 179.78 9.38165C179.18 8.8362 178.28 8.56347 177.08 8.56347C176.262 8.56347 175.453 8.69075 174.653 8.94529C173.871 9.19984 173.207 9.55438 172.662 10.0089L171.325 7.52711C172.089 6.94529 173.007 6.49984 174.08 6.19075C175.153 5.88165 176.289 5.72711 177.489 5.72711ZM177.025 18.1635C177.88 18.1635 178.634 17.9726 179.289 17.5907C179.962 17.1907 180.434 16.6271 180.707 15.8998V14.2089H177.189C175.225 14.2089 174.244 14.8544 174.244 16.1453C174.244 16.7635 174.489 17.2544 174.98 17.618C175.471 17.9817 176.153 18.1635 177.025 18.1635Z" fill="black"/>
<path d="M200.635 5.89074V20.4544H197.58V16.0635H193.735L190.762 20.4544H187.107L190.544 15.5998C189.489 15.2362 188.68 14.6817 188.117 13.9362C187.571 13.1726 187.298 12.2362 187.298 11.1271C187.298 9.45438 187.889 8.16347 189.071 7.25438C190.253 6.34529 191.88 5.89074 193.953 5.89074H200.635ZM194.062 8.75438C191.862 8.75438 190.762 9.58165 190.762 11.2362C190.762 12.8726 191.826 13.6907 193.953 13.6907H197.58V8.75438H194.062Z" fill="black"/>
<path d="M87.0635 47.7271V38.0726L82.1544 46.1998H80.6816L75.8544 38.0453V47.7271H72.7453V33.1635H76.318L81.4998 42.2726L86.9271 33.1635H90.118L90.1453 47.7271H87.0635Z" fill="black"/>
<path d="M108.354 40.5271C108.354 40.7635 108.336 41.0998 108.3 41.5362H96.8725C97.0725 42.6089 97.5907 43.4635 98.427 44.0998C99.2816 44.718 100.336 45.0271 101.591 45.0271C103.191 45.0271 104.509 44.4998 105.545 43.4453L107.372 45.5453C106.718 46.3271 105.891 46.918 104.891 47.318C103.891 47.718 102.763 47.918 101.509 47.918C99.9088 47.918 98.4998 47.5998 97.2816 46.9635C96.0634 46.3271 95.1179 45.4453 94.4452 44.318C93.7907 43.1726 93.4634 41.8817 93.4634 40.4453C93.4634 39.0271 93.7816 37.7544 94.4179 36.6271C95.0725 35.4817 95.9725 34.5907 97.1179 33.9544C98.2634 33.318 99.5543 32.9998 100.991 32.9998C102.409 32.9998 103.672 33.318 104.782 33.9544C105.909 34.5726 106.782 35.4544 107.4 36.5998C108.036 37.7271 108.354 39.0362 108.354 40.5271ZM100.991 35.7271C99.8997 35.7271 98.9725 36.0544 98.2088 36.7089C97.4634 37.3453 97.0088 38.1998 96.8452 39.2726H105.109C104.963 38.218 104.518 37.3635 103.772 36.7089C103.027 36.0544 102.1 35.7271 100.991 35.7271Z" fill="black"/>
<path d="M119.965 33.8726C121.347 33.8726 122.565 34.1726 123.619 34.7726C124.674 35.3544 125.492 36.1726 126.074 37.2271C126.674 38.2817 126.974 39.4907 126.974 40.8544C126.974 42.2544 126.647 43.4998 125.992 44.5907C125.338 45.6635 124.419 46.4998 123.238 47.0998C122.056 47.6998 120.71 47.9998 119.201 47.9998C116.674 47.9998 114.719 47.1635 113.338 45.4907C111.956 43.818 111.265 41.4089 111.265 38.2635C111.265 35.3362 111.892 33.018 113.147 31.3089C114.401 29.5998 116.319 28.4726 118.901 27.9271L125.665 26.4817L126.156 29.5362L120.019 30.7907C118.256 31.1544 116.938 31.7726 116.065 32.6453C115.192 33.518 114.683 34.7453 114.538 36.3271C115.192 35.5453 115.983 34.9453 116.91 34.5271C117.838 34.0907 118.856 33.8726 119.965 33.8726ZM119.283 45.2453C120.538 45.2453 121.547 44.8453 122.31 44.0453C123.092 43.2271 123.483 42.1907 123.483 40.9362C123.483 39.6817 123.092 38.6726 122.31 37.9089C121.547 37.1453 120.538 36.7635 119.283 36.7635C118.01 36.7635 116.983 37.1453 116.201 37.9089C115.419 38.6726 115.028 39.6817 115.028 40.9362C115.028 42.2089 115.419 43.2453 116.201 44.0453C117.001 44.8453 118.028 45.2453 119.283 45.2453Z" fill="black"/>
<path d="M143.91 40.5271C143.91 40.7635 143.892 41.0998 143.856 41.5362H132.428C132.628 42.6089 133.146 43.4635 133.983 44.0998C134.837 44.718 135.892 45.0271 137.146 45.0271C138.746 45.0271 140.065 44.4998 141.101 43.4453L142.928 45.5453C142.274 46.3271 141.446 46.918 140.446 47.318C139.446 47.718 138.319 47.918 137.065 47.918C135.465 47.918 134.056 47.5998 132.837 46.9635C131.619 46.3271 130.674 45.4453 130.001 44.318C129.346 43.1726 129.019 41.8817 129.019 40.4453C129.019 39.0271 129.337 37.7544 129.974 36.6271C130.628 35.4817 131.528 34.5907 132.674 33.9544C133.819 33.318 135.11 32.9998 136.546 32.9998C137.965 32.9998 139.228 33.318 140.337 33.9544C141.465 34.5726 142.337 35.4544 142.956 36.5998C143.592 37.7271 143.91 39.0362 143.91 40.5271ZM136.546 35.7271C135.456 35.7271 134.528 36.0544 133.765 36.7089C133.019 37.3453 132.565 38.1998 132.401 39.2726H140.665C140.519 38.218 140.074 37.3635 139.328 36.7089C138.583 36.0544 137.656 35.7271 136.546 35.7271Z" fill="black"/>
<path d="M160.652 33.1635V47.7271H157.243V36.0544H151.789L151.652 38.9453C151.561 40.8726 151.38 42.4907 151.107 43.7998C150.852 45.0907 150.407 46.118 149.77 46.8817C149.152 47.6271 148.298 47.9998 147.207 47.9998C146.698 47.9998 146.07 47.8998 145.325 47.6998L145.489 44.8362C145.743 44.8907 145.961 44.918 146.143 44.918C146.834 44.918 147.352 44.6453 147.698 44.0998C148.043 43.5362 148.261 42.8726 148.352 42.1089C148.461 41.3271 148.552 40.218 148.625 38.7817L148.87 33.1635H160.652Z" fill="black"/>
<path d="M172.553 37.9635C174.407 37.9635 175.825 38.3817 176.807 39.218C177.807 40.0544 178.307 41.2362 178.307 42.7635C178.307 44.3635 177.762 45.5998 176.671 46.4726C175.58 47.3453 174.043 47.7726 172.062 47.7544L165.243 47.7271V33.1635H168.653V37.9362L172.553 37.9635ZM171.762 45.2453C172.762 45.2635 173.525 45.0544 174.053 44.618C174.58 44.1817 174.844 43.5453 174.844 42.7089C174.844 41.8907 174.589 41.2907 174.08 40.9089C173.571 40.5271 172.798 40.3271 171.762 40.3089L168.653 40.2817V45.218L171.762 45.2453Z" fill="black"/>
<rect x="1" y="1" width="48" height="48" stroke="#D62222" stroke-width="2"/>
</svg>
