<svg width="155" height="39" viewBox="0 0 155 39" fill="none" xmlns="http://www.w3.org/2000/svg">
<path fill-rule="evenodd" clip-rule="evenodd" d="M8.22925 5.48608H10.9724V11.3447L13.555 11.3447H15.6854H16.2982V17.7357H13.555V14.0878L10.9724 14.0878V17.7355H8.22925V14.0878V11.3447V5.48608Z" fill="#D62222"/>
<path fill-rule="evenodd" clip-rule="evenodd" d="M21.9449 5.48608H24.688V11.3447L27.2707 11.3447H29.401H30.0138V17.7357H27.2707V14.0878L24.688 14.0878V17.7355H21.9449V14.0878H21.9448L21.9448 11.3447H21.9449V5.48608Z" fill="#D62222"/>
<path fill-rule="evenodd" clip-rule="evenodd" d="M8.22925 20.5732H10.9724V26.4319L13.555 26.4319H15.6854H16.2982V32.8229H13.555V29.175L10.9724 29.175V32.8227H8.22925V29.175V26.4319V20.5732Z" fill="#D62222"/>
<path fill-rule="evenodd" clip-rule="evenodd" d="M21.9449 20.5732H24.688V26.4319L27.2707 26.4319H29.401H30.0138V32.8229H27.2707V29.175L24.688 29.175V32.8227H21.9449V29.175H21.9448L21.9448 26.4319H21.9449V20.5732Z" fill="#D62222"/>
<path d="M62.9538 15.9199C61.4595 15.9199 60.1119 15.5987 58.911 14.9563C57.71 14.3 56.7673 13.3992 56.0831 12.2541C55.3988 11.095 55.0566 9.80326 55.0566 8.37884C55.0566 6.95442 55.3988 5.66965 56.0831 4.52453C56.7673 3.36544 57.71 2.46471 58.911 1.82232C60.1119 1.16597 61.4595 0.837796 62.9538 0.837796C64.448 0.837796 65.7956 1.16597 66.9966 1.82232C68.1976 2.46471 69.1402 3.35846 69.8245 4.50358C70.5088 5.6487 70.8509 6.94046 70.8509 8.37884C70.8509 9.81723 70.5088 11.109 69.8245 12.2541C69.1402 13.3992 68.1976 14.3 66.9966 14.9563C65.7956 15.5987 64.448 15.9199 62.9538 15.9199ZM62.9538 13.5319C63.9313 13.5319 64.8111 13.3154 65.5932 12.8825C66.3752 12.4356 66.9896 11.8212 67.4365 11.0392C67.8834 10.2432 68.1068 9.35639 68.1068 8.37884C68.1068 7.4013 67.8834 6.52151 67.4365 5.73948C66.9896 4.94348 66.3752 4.32902 65.5932 3.89611C64.8111 3.44923 63.9313 3.22579 62.9538 3.22579C61.9762 3.22579 61.0965 3.44923 60.3144 3.89611C59.5324 4.32902 58.9179 4.94348 58.4711 5.73948C58.0242 6.52151 57.8007 7.4013 57.8007 8.37884C57.8007 9.35639 58.0242 10.2432 58.4711 11.0392C58.9179 11.8212 59.5324 12.4356 60.3144 12.8825C61.0965 13.3154 61.9762 13.5319 62.9538 13.5319Z" fill="black"/>
<path d="M88.3572 10.0965C88.3572 11.8282 87.7777 13.1898 86.6186 14.1813C85.4734 15.1728 83.8326 15.7383 81.6959 15.878V19.7742H79.2242V15.8989C77.0875 15.7593 75.4466 15.1937 74.3015 14.2022C73.1564 13.2107 72.5838 11.8421 72.5838 10.0965C72.5838 8.36488 73.1564 7.01726 74.3015 6.05369C75.4466 5.07614 77.0875 4.51755 79.2242 4.3779V0.16748H81.6959V4.3779C83.8326 4.51755 85.4734 5.07614 86.6186 6.05369C87.7777 7.03123 88.3572 8.37884 88.3572 10.0965ZM75.1604 10.0965C75.1604 11.1718 75.4885 12.0097 76.1449 12.6102C76.8152 13.2107 77.8416 13.5738 79.2242 13.6995V6.59832C77.8416 6.71004 76.8152 7.05916 76.1449 7.64569C75.4885 8.23221 75.1604 9.04916 75.1604 10.0965ZM81.6959 13.6995C84.4331 13.4481 85.8016 12.2471 85.8016 10.0965C85.8016 9.03519 85.4595 8.21825 84.7752 7.64569C84.1049 7.05916 83.0785 6.71004 81.6959 6.59832V13.6995Z" fill="black"/>
<path d="M90.8949 4.52453H93.5134V11.898L99.6928 4.52453H102.081V15.7104H99.4624V8.33695L93.3039 15.7104H90.8949V4.52453Z" fill="black"/>
<path d="M110.693 15.857C109.534 15.857 108.494 15.6127 107.572 15.1239C106.65 14.6351 105.931 13.9578 105.415 13.092C104.898 12.2122 104.64 11.2207 104.64 10.1175C104.64 9.01425 104.898 8.02972 105.415 7.1639C105.931 6.29807 106.643 5.62077 107.551 5.132C108.473 4.64323 109.52 4.39885 110.693 4.39885C111.797 4.39885 112.76 4.62228 113.584 5.06916C114.422 5.51604 115.05 6.15842 115.469 6.99632L113.458 8.16937C113.137 7.65267 112.732 7.26863 112.243 7.01726C111.769 6.75193 111.245 6.61927 110.672 6.61927C109.695 6.61927 108.885 6.94046 108.242 7.58284C107.6 8.21126 107.279 9.05614 107.279 10.1175C107.279 11.1788 107.593 12.0307 108.222 12.673C108.864 13.3015 109.681 13.6157 110.672 13.6157C111.245 13.6157 111.769 13.49 112.243 13.2386C112.732 12.9733 113.137 12.5823 113.458 12.0656L115.469 13.2386C115.036 14.0765 114.401 14.7259 113.563 15.1867C112.739 15.6336 111.783 15.857 110.693 15.857Z" fill="black"/>
<path d="M117.775 4.52453H120.393V9.0701H126.028V4.52453H128.646V15.7104H126.028V11.2905H120.393V15.7104H117.775V4.52453Z" fill="black"/>
<path d="M136.324 4.39885C137.972 4.39885 139.229 4.79684 140.095 5.59284C140.974 6.37488 141.414 7.5619 141.414 9.15389V15.7104H138.942V14.3488C138.621 14.8376 138.16 15.2147 137.56 15.48C136.973 15.7314 136.261 15.857 135.423 15.857C134.585 15.857 133.852 15.7174 133.224 15.4381C132.595 15.1448 132.107 14.7468 131.757 14.2441C131.422 13.7274 131.255 13.1479 131.255 12.5055C131.255 11.5 131.625 10.697 132.365 10.0965C133.119 9.48207 134.299 9.17484 135.905 9.17484H138.796V9.00726C138.796 8.22523 138.558 7.62474 138.084 7.20579C137.623 6.78684 136.931 6.57737 136.01 6.57737C135.381 6.57737 134.76 6.67512 134.145 6.87063C133.545 7.06614 133.035 7.33846 132.616 7.68758L131.59 5.78137C132.176 5.33449 132.882 4.99235 133.706 4.75495C134.53 4.51755 135.402 4.39885 136.324 4.39885ZM135.968 13.9508C136.624 13.9508 137.204 13.8042 137.707 13.5109C138.223 13.2037 138.586 12.7708 138.796 12.2122V10.9135H136.094C134.585 10.9135 133.831 11.4092 133.831 12.4007C133.831 12.8755 134.02 13.2526 134.397 13.5319C134.774 13.8112 135.298 13.9508 135.968 13.9508Z" fill="black"/>
<path d="M154.102 4.52453V15.7104H151.755V12.3379H148.802L146.519 15.7104H143.712L146.351 11.9818C145.541 11.7025 144.92 11.2766 144.487 10.704C144.068 10.1175 143.858 9.39828 143.858 8.54642C143.858 7.26165 144.312 6.27014 145.22 5.5719C146.128 4.87365 147.377 4.52453 148.969 4.52453H154.102ZM149.053 6.724C147.364 6.724 146.519 7.3594 146.519 8.63021C146.519 9.88705 147.336 10.5155 148.969 10.5155H151.755V6.724H149.053Z" fill="black"/>
<path d="M66.8709 36.6578V29.2424L63.1004 35.4847H61.9693L58.2616 29.2215V36.6578H55.8736V25.4719H58.6177L62.5977 32.4683L66.7662 25.4719H69.217L69.238 36.6578H66.8709Z" fill="black"/>
<path d="M83.2238 31.1277C83.2238 31.3092 83.2098 31.5676 83.1819 31.9027H74.405C74.5586 32.7266 74.9566 33.383 75.599 33.8718C76.2553 34.3466 77.0653 34.584 78.0288 34.584C79.2578 34.584 80.2702 34.179 81.0662 33.369L82.4697 34.982C81.9669 35.5825 81.3315 36.0363 80.5635 36.3436C79.7954 36.6508 78.9296 36.8044 77.966 36.8044C76.7371 36.8044 75.6548 36.56 74.7192 36.0712C73.7835 35.5825 73.0573 34.9052 72.5406 34.0393C72.0379 33.1596 71.7865 32.168 71.7865 31.0648C71.7865 29.9756 72.0309 28.998 72.5197 28.1322C73.0224 27.2524 73.7137 26.5681 74.5935 26.0794C75.4733 25.5906 76.4648 25.3462 77.568 25.3462C78.6573 25.3462 79.6278 25.5906 80.4797 26.0794C81.3455 26.5542 82.0158 27.2315 82.4906 28.1112C82.9794 28.9771 83.2238 29.9825 83.2238 31.1277ZM77.568 27.4409C76.7301 27.4409 76.0179 27.6923 75.4314 28.195C74.8588 28.6838 74.5097 29.3402 74.384 30.1641H80.7311C80.6193 29.3541 80.2772 28.6978 79.7046 28.195C79.1321 27.6923 78.4199 27.4409 77.568 27.4409Z" fill="black"/>
<path d="M92.1415 26.0165C93.2028 26.0165 94.1384 26.2469 94.9484 26.7078C95.7584 27.1546 96.3868 27.7831 96.8337 28.593C97.2945 29.403 97.5249 30.3317 97.5249 31.379C97.5249 32.4543 97.2736 33.4109 96.7708 34.2488C96.2681 35.0728 95.5629 35.7151 94.6551 36.176C93.7474 36.6368 92.714 36.8672 91.5549 36.8672C89.6138 36.8672 88.1126 36.2249 87.0513 34.9401C85.9899 33.6553 85.4593 31.805 85.4593 29.389C85.4593 27.1407 85.9411 25.3602 86.9046 24.0475C87.8682 22.7348 89.3415 21.8689 91.3245 21.45L96.5195 20.3398L96.8965 22.6859L92.1834 23.6495C90.8288 23.9288 89.8163 24.4036 89.146 25.0739C88.4757 25.7442 88.0847 26.6868 87.9729 27.9018C88.4757 27.3013 89.0832 26.8404 89.7954 26.5192C90.5076 26.1841 91.2896 26.0165 92.1415 26.0165ZM91.6178 34.7516C92.5814 34.7516 93.3564 34.4443 93.9429 33.8299C94.5434 33.2015 94.8437 32.4055 94.8437 31.4419C94.8437 30.4783 94.5434 29.7032 93.9429 29.1167C93.3564 28.5302 92.5814 28.2369 91.6178 28.2369C90.6402 28.2369 89.8512 28.5302 89.2507 29.1167C88.6502 29.7032 88.35 30.4783 88.35 31.4419C88.35 32.4194 88.6502 33.2154 89.2507 33.8299C89.8652 34.4443 90.6542 34.7516 91.6178 34.7516Z" fill="black"/>
<path d="M110.533 31.1277C110.533 31.3092 110.519 31.5676 110.491 31.9027H101.714C101.868 32.7266 102.266 33.383 102.908 33.8718C103.565 34.3466 104.375 34.584 105.338 34.584C106.567 34.584 107.579 34.179 108.375 33.369L109.779 34.982C109.276 35.5825 108.641 36.0363 107.873 36.3436C107.105 36.6508 106.239 36.8044 105.275 36.8044C104.046 36.8044 102.964 36.56 102.028 36.0712C101.093 35.5825 100.367 34.9052 99.8499 34.0393C99.3472 33.1596 99.0958 32.168 99.0958 31.0648C99.0958 29.9756 99.3402 28.998 99.829 28.1322C100.332 27.2524 101.023 26.5681 101.903 26.0794C102.783 25.5906 103.774 25.3462 104.877 25.3462C105.967 25.3462 106.937 25.5906 107.789 26.0794C108.655 26.5542 109.325 27.2315 109.8 28.1112C110.289 28.9771 110.533 29.9825 110.533 31.1277ZM104.877 27.4409C104.039 27.4409 103.327 27.6923 102.741 28.195C102.168 28.6838 101.819 29.3402 101.693 30.1641H108.04C107.929 29.3541 107.586 28.6978 107.014 28.195C106.441 27.6923 105.729 27.4409 104.877 27.4409Z" fill="black"/>
<path d="M123.392 25.4719V36.6578H120.774V27.6923H116.584L116.48 29.9127C116.41 31.393 116.27 32.6359 116.061 33.6413C115.865 34.6329 115.523 35.4219 115.034 36.0084C114.559 36.581 113.903 36.8672 113.065 36.8672C112.674 36.8672 112.192 36.7904 111.62 36.6368L111.746 34.4373C111.941 34.4792 112.109 34.5002 112.248 34.5002C112.779 34.5002 113.177 34.2907 113.442 33.8718C113.708 33.4389 113.875 32.9291 113.945 32.3426C114.029 31.7421 114.099 30.8903 114.155 29.787L114.343 25.4719H123.392Z" fill="black"/>
<path d="M132.533 29.1586C133.957 29.1586 135.046 29.4798 135.8 30.1222C136.568 30.7646 136.952 31.6723 136.952 32.8453C136.952 34.0743 136.533 35.0239 135.696 35.6942C134.858 36.3645 133.678 36.6927 132.155 36.6787L126.919 36.6578V25.4719H129.537V29.1377L132.533 29.1586ZM131.925 34.7516C132.693 34.7655 133.28 34.6049 133.685 34.2698C134.09 33.9346 134.292 33.4458 134.292 32.8035C134.292 32.175 134.097 31.7142 133.706 31.4209C133.315 31.1277 132.721 30.974 131.925 30.9601L129.537 30.9391V34.7306L131.925 34.7516Z" fill="black"/>
<path fill-rule="evenodd" clip-rule="evenodd" d="M36.4035 2H2V36.4035H36.4035V2ZM0 0V38.4035H38.4035V0H0Z" fill="#D62222"/>
</svg>
